<svg xmlns="http://www.w3.org/2000/svg" viewBox="0 0 200 200" width="200" height="200">
  <defs>
    <!-- 天空渐变 -->
    <linearGradient id="skyGradient" x1="0%" y1="0%" x2="0%" y2="100%">
      <stop offset="0%" style="stop-color:#87CEEB;stop-opacity:1" />
      <stop offset="60%" style="stop-color:#E6F3FF;stop-opacity:1" />
      <stop offset="100%" style="stop-color:#FFE4B5;stop-opacity:1" />
    </linearGradient>
    
    <!-- 云朵渐变 -->
    <radialGradient id="cloudGradient" cx="50%" cy="50%" r="50%">
      <stop offset="0%" style="stop-color:#FFFFFF;stop-opacity:0.9" />
      <stop offset="100%" style="stop-color:#F0F8FF;stop-opacity:0.6" />
    </radialGradient>
    
    <!-- 飞机窗户反射 -->
    <linearGradient id="windowReflection" x1="0%" y1="0%" x2="100%" y2="100%">
      <stop offset="0%" style="stop-color:#FFFFFF;stop-opacity:0.3" />
      <stop offset="50%" style="stop-color:#FFFFFF;stop-opacity:0.1" />
      <stop offset="100%" style="stop-color:#FFFFFF;stop-opacity:0.4" />
    </linearGradient>
    
    <!-- 地面渐变 -->
    <linearGradient id="groundGradient" x1="0%" y1="0%" x2="0%" y2="100%">
      <stop offset="0%" style="stop-color:#8FBC8F;stop-opacity:0.8" />
      <stop offset="100%" style="stop-color:#228B22;stop-opacity:1" />
    </linearGradient>
  </defs>
  
  <!-- 飞机窗户外框 -->
  <rect x="10" y="10" width="180" height="180" rx="90" ry="90" 
        fill="#2C3E50" stroke="#34495E" stroke-width="8"/>
  
  <!-- 天空背景 -->
  <circle cx="100" cy="100" r="85" fill="url(#skyGradient)"/>
  
  <!-- 远山轮廓 -->
  <path d="M 20 140 Q 50 120 80 135 Q 110 125 140 130 Q 170 125 180 135 L 180 185 L 20 185 Z" 
        fill="url(#groundGradient)" opacity="0.7"/>
  
  <!-- 云朵 -->
  <ellipse cx="70" cy="50" rx="25" ry="12" fill="url(#cloudGradient)"/>
  <ellipse cx="90" cy="45" rx="20" ry="8" fill="url(#cloudGradient)"/>
  <ellipse cx="130" cy="60" rx="30" ry="15" fill="url(#cloudGradient)"/>
  <ellipse cx="150" cy="55" rx="18" ry="9" fill="url(#cloudGradient)"/>
  
  <!-- 更多小云朵 -->
  <ellipse cx="40" cy="70" rx="15" ry="6" fill="url(#cloudGradient)" opacity="0.8"/>
  <ellipse cx="160" cy="40" rx="12" ry="5" fill="url(#cloudGradient)" opacity="0.7"/>
  
  <!-- 太阳光芒 -->
  <circle cx="150" cy="40" r="3" fill="#FFD700" opacity="0.8"/>
  <path d="M 150 32 L 150 28 M 158 40 L 162 40 M 154 33 L 157 30 M 146 33 L 143 30" 
        stroke="#FFD700" stroke-width="1.5" opacity="0.6"/>
  
  <!-- 飞机窗户内侧反射 -->
  <circle cx="100" cy="100" r="82" fill="url(#windowReflection)"/>
  
  <!-- 飞机窗户玻璃效果 -->
  <circle cx="100" cy="100" r="80" fill="none" stroke="rgba(255,255,255,0.2)" stroke-width="2"/>
  
  <!-- 窗户把手/装饰 -->
  <rect x="170" y="95" width="8" height="10" rx="2" fill="#7F8C8D"/>
  
  <!-- 个人标识 - 代表观察者 -->
  <circle cx="30" cy="170" r="8" fill="rgba(255,255,255,0.7)"/>
  <circle cx="30" cy="170" r="6" fill="#4A5568"/>
  <circle cx="32" cy="168" r="1.5" fill="white"/>
</svg>
